<?xml version="1.0"?>
<svg xmlns="http://www.w3.org/2000/svg" xmlns:xlink="http://www.w3.org/1999/xlink" version="1.1" id="Capa_1" x="0px" y="0px" width="512px" height="512px" viewBox="0 0 585.918 585.918" style="enable-background:new 0 0 585.918 585.918;" xml:space="preserve" class=""><g><g>
	<path d="M357.396,535.33c0.776,0.042,1.542,0.109,2.329,0.109h177.39c20.75,0,37.627-16.883,37.627-37.627V86.597   c0-20.743-16.877-37.628-37.627-37.628h-177.39c-0.781,0-1.553,0.077-2.329,0.113V0L11.176,46.206v492.311l346.22,47.401V535.33z    M359.726,70.476h177.39c8.893,0,16.125,7.236,16.125,16.126v411.22c0,8.888-7.232,16.127-16.125,16.127h-10.803l3.127-2.794   l0.504-0.509c7.256-7.271,7.256-19.16-0.011-26.432c-7.264-7.264-19.154-7.264-26.426,0.006l-27.044,27.028h-13.219l33.653-33.648   L377.964,358.677l-20.567,20.566v-13.214l13.953-13.956c7.274-7.281,7.274-19.165,0-26.437c-3.833-3.838-8.926-5.539-13.953-5.292   V70.711C358.162,70.599,358.929,70.476,359.726,70.476z M90.498,346.57l-7.979-28.636l-29.124-0.351l-7.126,27.869l-23.105-0.589   l30.226-108.52l30.184-0.785l32.494,111.658L90.498,346.57z M199.945,295.804c-8.811,8.447-21.743,12.153-36.638,12.042   c-3.297-0.026-6.257-0.221-8.525-0.566v40.925l-24.41-0.61V235.866c7.535-1.538,18.205-2.832,33.417-3.236   c15.598-0.409,26.845,2.402,34.457,8.443c7.326,5.743,12.294,15.397,12.294,26.883C210.541,279.46,206.772,289.206,199.945,295.804   z M294.378,351.762l-30.057-52.629l-10.376,12.566v39.034l-26.614-0.672V231.835l26.614-0.693v52.882h0.528   c2.676-4.626,5.541-8.918,8.229-13.207l27.813-40.623l34.895-0.913l-41.5,52.662l43.786,70.666L294.378,351.762z" data-original="#000000" class="active-path" data-old_color="#000000" fill="#312F2F"/>
	<path d="M165.112,252.223c-5.103,0.097-8.536,0.661-10.331,1.205v33.798c2.11,0.507,4.746,0.672,8.357,0.672   c13.417-0.021,21.766-7.095,21.766-18.974C184.9,258.25,177.706,252.002,165.112,252.223z" data-original="#000000" class="active-path" data-old_color="#000000" fill="#312F2F"/>
	<path d="M522.731,381.831l24.43-7.712c1.218-0.382,1.911-1.706,1.514-2.93c-0.368-1.233-1.701-1.914-2.919-1.526l-24.798,7.816   c-4.085-9.217-9.902-17.854-17.462-25.411c-7.547-7.555-16.188-13.366-25.416-17.451l7.822-24.803   c0.387-1.224-0.294-2.54-1.524-2.93c-1.227-0.382-2.54,0.311-2.929,1.534l-7.706,24.425c-27.187-10.242-58.604-5.922-82.205,12.986   l118.201,118.196C528.652,440.437,532.979,409.008,522.731,381.831z M453.617,368.263c-5.29,5.274-13.868,5.274-19.16-0.011   c-5.292-5.287-5.292-13.87,0-19.155c5.28-5.292,13.87-5.292,19.171,0C458.909,354.388,458.909,362.965,453.617,368.263z    M487.308,421.112c-5.291-5.285-5.28-13.868,0-19.154c5.303-5.293,13.869-5.293,19.172,0c5.285,5.286,5.285,13.869,0,19.154   C501.177,426.41,492.61,426.41,487.308,421.112z" data-original="#000000" class="active-path" data-old_color="#000000" fill="#312F2F"/>
	<path d="M69.043,255.89h-0.307c-1.499,6.552-3.016,14.89-4.659,21.252l-5.984,23.266l22.481,0.078l-6.386-23.412   C72.371,270.543,70.555,262.399,69.043,255.89z" data-original="#000000" class="active-path" data-old_color="#000000" fill="#312F2F"/>
</g></g> </svg>
