<svg height="512pt" viewBox="0 0 512 512" width="512pt" xmlns="http://www.w3.org/2000/svg"><path d="m10 10v492h492v-492zm0 0" fill="#b5bcc9"/><path d="m216 50h-166v392h186c11.046875 0 20 8.953125 20 20v-372c0-22.089844-17.910156-40-40-40zm0 0" fill="#f9f9f9"/><path d="m90 90h43v52h-43zm0 0" fill="#ffcb7c"/><path d="m90 182h126v40h-126zm0 0" fill="#c9a0e1"/><path d="m90 302h126v100h-126zm0 0" fill="#ff6977"/><path d="m256 90v372c0-11.046875 8.953125-20 20-20h186v-392h-166c-22.089844 0-40 17.910156-40 40zm0 0" fill="#f9f9f9"/><path d="m296 90h126v52h-126zm0 0" fill="#ffcb7c"/><path d="m296 342h126v60h-126zm0 0" fill="#b0e7f8"/><path d="m173 90h43v52h-43zm0 0" fill="#b0e7f8"/><path d="m296 182h40v40h-40zm0 0" fill="#00ccf2"/><path d="m376 182h46v40h-46zm0 0" fill="#c9a0e1"/><path d="m502 0h-492c-5.523438 0-10 4.476562-10 10v492c0 5.523438 4.476562 10 10 10h492c5.523438 0 10-4.476562 10-10v-492c0-5.523438-4.476562-10-10-10zm-256 433.714844c-3.128906-1.109375-6.496094-1.714844-10-1.714844h-176v-372h156c16.542969 0 30 13.457031 30 30zm20-343.714844c0-16.542969 13.457031-30 30-30h156v372h-176c-3.503906 0-6.871094.605469-10 1.714844zm-246-70h226v30.027344c-8.363281-6.292969-18.753906-10.027344-30-10.027344h-166c-5.523438 0-10 4.476562-10 10v392c0 5.523438 4.476562 10 10 10h186c5.515625 0 10 4.484375 10 10v30h-226zm472 472h-226v-30c0-5.515625 4.484375-10 10-10h186c5.523438 0 10-4.476562 10-10v-392c0-5.523438-4.476562-10-10-10h-166c-11.246094 0-21.636719 3.734375-30 10.027344v-30.027344h226zm0 0"/><path d="m180 262c0-5.511719-4.488281-10-10-10s-10 4.488281-10 10 4.488281 10 10 10 10-4.488281 10-10zm0 0"/><path d="m90 272h40c5.511719 0 10-4.488281 10-10s-4.488281-10-10-10h-40c-5.511719 0-10 4.488281-10 10s4.488281 10 10 10zm0 0"/><path d="m90 152h43c5.523438 0 10-4.476562 10-10v-52c0-5.523438-4.476562-10-10-10h-43c-5.523438 0-10 4.476562-10 10v52c0 5.523438 4.476562 10 10 10zm10-52h23v32h-23zm0 0"/><path d="m216 172h-126c-5.523438 0-10 4.476562-10 10v40c0 5.523438 4.476562 10 10 10h126c5.523438 0 10-4.476562 10-10v-40c0-5.523438-4.476562-10-10-10zm-10 40h-106v-20h106zm0 0"/><path d="m216 292h-126c-5.523438 0-10 4.476562-10 10v100c0 5.523438 4.476562 10 10 10h126c5.523438 0 10-4.476562 10-10v-100c0-5.523438-4.476562-10-10-10zm-10 100h-106v-80h106zm0 0"/><path d="m297 252c-5.523438 0-10 4.476562-10 10s4.476562 10 10 10h25c5.523438 0 10-4.476562 10-10s-4.476562-10-10-10zm0 0"/><path d="m432 262c0-5.523438-4.476562-10-10-10h-60c-5.523438 0-10 4.476562-10 10s4.476562 10 10 10h60c5.523438 0 10-4.476562 10-10zm0 0"/><path d="m296 312h40c5.511719 0 10-4.488281 10-10s-4.488281-10-10-10h-40c-5.511719 0-10 4.488281-10 10s4.488281 10 10 10zm0 0"/><path d="m366 302c0 5.511719 4.488281 10 10 10s10-4.488281 10-10-4.488281-10-10-10-10 4.488281-10 10zm0 0"/><path d="m296 152h126c5.523438 0 10-4.476562 10-10v-52c0-5.523438-4.476562-10-10-10h-126c-5.523438 0-10 4.476562-10 10v52c0 5.523438 4.476562 10 10 10zm10-52h106v32h-106zm0 0"/><path d="m296 412h126c5.523438 0 10-4.476562 10-10v-60c0-5.523438-4.476562-10-10-10h-126c-5.523438 0-10 4.476562-10 10v60c0 5.523438 4.476562 10 10 10zm10-60h106v40h-106zm0 0"/><path d="m216 80h-43c-5.523438 0-10 4.476562-10 10v52c0 5.523438 4.476562 10 10 10h43c5.523438 0 10-4.476562 10-10v-52c0-5.523438-4.476562-10-10-10zm-10 52h-23v-32h23zm0 0"/><path d="m296 232h40c5.523438 0 10-4.476562 10-10v-40c0-5.523438-4.476562-10-10-10h-40c-5.523438 0-10 4.476562-10 10v40c0 5.523438 4.476562 10 10 10zm10-40h20v20h-20zm0 0"/><path d="m422 172h-46c-5.523438 0-10 4.476562-10 10v40c0 5.523438 4.476562 10 10 10h46c5.523438 0 10-4.476562 10-10v-40c0-5.523438-4.476562-10-10-10zm-10 40h-26v-20h26zm0 0"/></svg>